<svg xmlns="http://www.w3.org/2000/svg" viewBox="0 0 500 500">
  <path fill="#70817F" d="M27.197 292.371C25.988 158.537 30.367 145.806 25.084 12.033 24.474-3.521-.624-2.651.001 12.906 5.284 146.681.892 159.414 2.113 293.248 3.367 308.823 28.454 307.917 28.313 292.371ZM156.879 11.806C156.268-3.747 131.17-2.881 131.792 12.683 137.075 146.454 132.684 159.195 133.905 293.031 134.046 308.613 159.133 307.707 159.005 292.161 157.783 158.187 162.162 145.444 156.879 11.806ZM259.408 291.97C258.199 158.13 262.578 145.399 257.308 11.624 256.687-3.926 231.59-3.056 232.211 12.497 237.494 146.272 233.103 159.012 234.324 292.839 235.378 308.292 260.465 307.386 260.324 291.84ZM208.284 292.294C206.113 158.494 207.943 145.844 202.884 12.066 202.284-3.484 184.395-2.871 184.995 12.68 190.066 146.458 188.234 159.111 190.406 292.9 191.464 308.459 209.365 307.798 209.107 292.259ZM464.408 11.261C463.797-4.289 438.7-3.426 439.321 12.138 444.604 145.913 440.212 158.646 441.444 292.48 441.584 308.062 466.671 307.148 466.53 291.602 465.308 157.628 469.688 144.886 464.408 11.261ZM392.083 12.333C397.154 146.111 395.323 158.76 397.494 292.556 397.741 308.131 415.644 307.478 415.395 291.932 413.223 158.142 414.055 145.486 408.984 11.707 408.398-3.467 390.494-2.857 392.083 12.333ZM108.782 292.235C107.563 158.401 111.952 145.671 106.669 11.898 106.047-3.655 49.583-2.734 50.193 12.827 55.476 146.598 51.084 159.339 52.305 293.175 53.559 308.749 110.033 307.78 109.879 292.241ZM366.092 291.78C364.882 157.95 369.261 145.213 363.992 11.438 363.369-4.113 281.807-3.147 282.417 12.409 287.7 146.183 283.308 158.923 284.529 292.75 285.583 308.202 367.158 307.192 367.005 291.647ZM36.92 320.845C18.185 310.674-6.55 377.327 36.949 373.728 48.923 372.737 54.793 364.641 55.638 354.657A33.206 33.206 0 0 0 55.638 349.37C54.646 336.57 48.86 328.037 36.92 320.845ZM36.42 355.465C36.208 355.689 35.997 355.895 35.774 356.1 35.751 356.1 35.751 356.108 35.751 356.108 35.914 355.836 35.516 355.983 35.293 356.108L34.8 355.98A9.028 9.028 0 0 1 31.877 354.86 14.22 14.22 0 0 1 33.86 340.806 22.107 22.107 0 0 1 37.46 354.523 6.244 6.244 0 0 0 36.42 355.465ZM118.006 320.845C99.282 310.674 74.536 377.327 118.135 373.728 130.109 372.737 135.979 364.641 136.824 354.657A31.85 31.85 0 0 0 136.824 349.37C135.832 336.57 130.056 328.037 118.006 320.845ZM117.506 355.465C117.294 355.689 117.07 355.895 116.861 356.1 116.825 356.108 116.825 356.108 116.825 356.108 117.001 355.836 116.603 355.983 116.38 356.108 116.24 356.075 116.11 356.039 115.88 355.98A9.126 9.126 0 0 1 112.957 354.86 14.247 14.247 0 0 1 114.588 340.504 22.192 22.192 0 0 1 118.204 354.221 5.646 5.646 0 0 0 117.506 355.465ZM199.106 320.845C180.37 310.674 155.625 377.327 199.224 373.728 211.186 372.737 217.056 364.641 217.901 354.657A33.088 33.088 0 0 0 217.901 349.37C216.909 336.57 211.133 328.037 199.106 320.845ZM198.59 355.465C198.378 355.689 198.154 355.895 197.931 356.1 197.907 356.108 197.907 356.108 197.907 356.108 198.071 355.836 197.673 355.983 197.45 356.108 197.309 356.075 197.179 356.039 196.944 355.98A9.129 9.129 0 0 1 194.022 354.86 14.246 14.246 0 0 1 195.665 340.504 22.106 22.106 0 0 1 199.265 354.221 5.646 5.646 0 0 0 198.59 355.465ZM280.676 320.845C261.941 310.674 237.195 377.327 280.794 373.728 292.78 372.737 298.648 364.641 299.493 354.657A32.856 32.856 0 0 0 299.493 349.37C298.501 336.57 292.715 328.037 280.676 320.845ZM280.176 355.465C279.965 355.689 279.752 355.895 279.53 356.1 279.506 356.108 279.506 356.108 279.506 356.108 279.682 355.836 279.284 355.983 279.061 356.108 278.908 356.075 278.79 356.039 278.555 355.98A9.069 9.069 0 0 1 275.644 354.86 14.192 14.192 0 0 1 277.276 340.504 22.028 22.028 0 0 1 280.868 354.221 6.734 6.734 0 0 0 280.176 355.465ZM362.263 320.845C343.54 310.674 318.794 377.327 362.393 373.728 374.379 372.737 380.246 364.641 381.092 354.657A31.742 31.742 0 0 0 381.092 349.37C380.1 336.57 374.324 328.037 362.263 320.845ZM361.746 355.465C361.535 355.689 361.322 355.895 361.099 356.1 361.075 356.108 361.075 356.108 361.075 356.108 361.24 355.836 360.842 355.983 360.619 356.108 360.477 356.075 360.348 356.039 360.113 355.98A9.1 9.1 0 0 1 357.18 354.86 14.243 14.243 0 0 1 358.812 340.504 22.048 22.048 0 0 1 362.427 354.221 5.913 5.913 0 0 0 361.746 355.465ZM443.863 320.845C425.126 310.674 400.382 377.327 443.979 373.728 455.953 372.737 461.822 364.641 462.668 354.657A33.088 33.088 0 0 0 462.668 349.37C461.676 336.57 455.9 328.037 443.863 320.845ZM443.357 355.465C443.146 355.689 442.933 355.895 442.71 356.1 442.686 356.108 442.686 356.108 442.686 356.108 442.862 355.836 442.464 355.983 442.241 356.108 442.099 356.075 441.97 356.039 441.734 355.98A9.138 9.138 0 0 1 438.812 354.86 14.246 14.246 0 0 1 440.455 340.504 22.185 22.185 0 0 1 444.055 354.221 5.623 5.623 0 0 0 443.357 355.465Z"/>
</svg>