<svg xmlns="http://www.w3.org/2000/svg" viewBox="0 0 500 368.89">
  <path fill="#70817F" d="M478.49,337.76H30.85c-1.24,0-8-.94-9,0,1.28-1.29,6.33,3.59,5.14,5.09.06-.08,0-.35,0-.45a10.47,10.47,0,0,0,0-2.12v-313a8.76,8.76,0,0,0,0-2c0-.08.05-.34,0-.4,1,1.27-3.61,6.57-5.14,5.09.27.26,2.12,0,2.47,0h451.9c2.87,0,2.21.81-.38-.7-3-1.73-2.54-6.93-2.54-1.72V340.39a10,10,0,0,0,0,2c0,.1-.06.33,0,.41-1.54-2.34,3.71-4.93,5.14-5.06-6.58.59-12.23,5.19-12.23,12.23,0,6.15,5.61,12.83,12.23,12.23,11.26-1,19-8.64,19.31-20.12.06-2.2,0-4.42,0-6.62V27.82a31.64,31.64,0,0,0-.55-7.45c-2.18-9.19-10.45-14.53-19.5-14.79-4.76-.14-9.54,0-14.29,0H24.11c-12,0-21.23,7.75-21.54,20.23-.16,6.43,0,12.89,0,19.33V331.24c0,5.47-.78,12.07.88,17.38,2.7,8.6,10.58,13.36,19.26,13.6,1.69,0,3.38,0,5.07,0h450.7C494.22,362.22,494.25,337.76,478.49,337.76Z"/>
  <rect fill="#70817F" x="14.8" y="89.13" width="470.77" height="22.18"/>
  <rect fill="#70817F" x="14.8" y="161.71" width="470.77" height="22.18"/>
  <rect fill="#70817F" x="270" y="120.58" width="21.62" height="31.66"/>
  <rect fill="#70817F" x="307.88" y="120.58" width="21.62" height="31.66"/>
  <rect fill="#70817F" x="346.6" y="120.58" width="21.62" height="31.66"/>
  <rect fill="#70817F" x="384.47" y="120.58" width="21.62" height="31.66"/>
</svg>
