<svg id="Layer_1" data-name="Layer 1" xmlns="http://www.w3.org/2000/svg" viewBox="0 0 939.79 737.04"><defs><style>.cls-1{fill:#be6b63;}</style></defs><title>Artboard 1</title><path class="cls-1" d="M859.79,303.57H470.68V175.34C470.68,78.68,365.12,0,235.36,0S0,78.68,0,175.34c0,3.09.14,6.29.42,9.83v379.5c0,95.53,103.21,170.4,234.94,170.4H859.79a80.09,80.09,0,0,0,80-80V383.6A80.09,80.09,0,0,0,859.79,303.57ZM47.46,167.48c2.86-31.51,22.72-61,56.17-83.46,35.49-23.82,82.27-37,131.73-37,103.79,0,188.26,57.57,188.26,128.28S339.15,303.57,235.36,303.57c-99.36,0-181.78-52.8-187.9-120.31ZM892.73,655A33,33,0,0,1,859.79,688h-42V597.59a21.17,21.17,0,1,0-42.34,0V688H699v-198a21.17,21.17,0,1,0-42.34,0V688h-76.5V597.59a21.19,21.19,0,0,0-42.38,0V688H461.28v-198a21.18,21.18,0,1,0-42.35,0V688H342.4V597.59a21.17,21.17,0,1,0-42.34,0V688h-64.7c-4,0-7.89-.11-11.77-.17V489.92a21.19,21.19,0,0,0-42.38,0V683a245.18,245.18,0,0,1-49.42-14.84V557a21.18,21.18,0,0,0-42.35,0v86.21c-26.31-21.17-42-48.36-42-78.52V280.87c44.15,43.48,113.68,69.76,187.9,69.76H859.79a33,33,0,0,1,32.94,33Z"/><path class="cls-1" d="M191.77,324.18c-67.93,0-130.19-26.23-166.69-70.26a18.21,18.21,0,1,1,28-23.26c29.26,35.28,82.31,57.07,138.78,57.07h1.3c34.68-.17,67-10.28,91-28.53,22.46-17,34.79-39.1,34.65-62.12-.2-37.52-43.61-67.85-96.91-67.85h-.76c-20.78.11-40.07,6.12-54.31,17-12.72,9.66-19.68,21.91-19.6,34.54.08,12,9.15,20.5,14.55,24.49,10.61,7.92,25.52,12.36,41,12.36h.48a55.24,55.24,0,0,0,24.18-5.39A18.17,18.17,0,1,1,243.7,244.7,91.29,91.29,0,0,1,203.48,254h-.7c-23.37,0-45.63-7-62.62-19.55-18.51-13.59-29.15-33.14-29.29-53.58-.17-24.38,11.94-47,34-63.74C165.35,101.6,192.39,93,221,92.78h1c73.3,0,133,46.56,133.39,104.13.2,34.71-17.24,67.23-49.09,91.32C276,311.2,235.89,324,193.4,324.18Z"/></svg>