<svg 
    xmlns="http://www.w3.org/2000/svg" 
    viewBox="0 0 22 20" 
    role="img" 
    aria-label="Ãcone customizado"
    >
    <path 
        fill="#c76b6b" 
        d="M606.441,143.534A5.879,5.879,0,0,0,602.132,142a4.862,4.862,0,0,0-1.553.266,6.251,6.251,0,0,0-1.474.717q-0.681.451-1.172,0.848a11.457,11.457,0,0,0-.933.841,11.457,11.457,0,0,0-.933-0.841q-0.492-.4-1.173-0.848a6.244,6.244,0,0,0-1.473-.717,4.866,4.866,0,0,0-1.553-.266,5.879,5.879,0,0,0-4.309,1.534A5.7,5.7,0,0,0,586,147.789a5.433,5.433,0,0,0,.289,1.707,7.566,7.566,0,0,0,.656,1.5,11.075,11.075,0,0,0,.835,1.206q0.466,0.587.682,0.81a4.3,4.3,0,0,0,.337.322l7.661,7.446a0.765,0.765,0,0,0,1.08,0l7.649-7.422Q608,150.523,608,147.789A5.7,5.7,0,0,0,606.441,143.534Zm-2.321,8.658L597,159.107l-7.133-6.927q-2.295-2.313-2.295-4.391a5.428,5.428,0,0,1,.264-1.769,3.464,3.464,0,0,1,.675-1.218,3.226,3.226,0,0,1,1-.736,4.407,4.407,0,0,1,1.154-.384,6.975,6.975,0,0,1,1.2-.1,3.5,3.5,0,0,1,1.375.316,6.268,6.268,0,0,1,1.357.791q0.62,0.477,1.062.891a9.529,9.529,0,0,1,.737.761,0.8,0.8,0,0,0,1.2,0,9.5,9.5,0,0,1,.736-0.761q0.443-.414,1.062-0.891a6.268,6.268,0,0,1,1.357-.791,3.5,3.5,0,0,1,1.375-.316,6.975,6.975,0,0,1,1.2.1,4.407,4.407,0,0,1,1.154.384,3.226,3.226,0,0,1,1,.736,3.449,3.449,0,0,1,.676,1.218,5.429,5.429,0,0,1,.263,1.769Q606.428,149.867,604.12,152.192Z" 
        transform="translate(-586 -142)"
    />
</svg>