<svg width="500" height="500" viewBox="0 0 500 500" xmlns="http://www.w3.org/2000/svg" fill="#c76b6b">
  <path class="cls-1" d="M392.64,315.52c.16-4.84,1.66-20.72.72-22.94-.2-.58-.33-1.64-1.29-1.26-.76.29-1.84.41-2.07,1.48-.49,2.17-1.76,3.8-3,5.58-2,2.83-7.12,6.53-7.12,6.53h0s-2.42.9-3.51,1.39c-1.86.8-10.48,7-11.37,7.45-2.61,1.19-5.23,2.32-7.86,3.47l.12,0-.08.1c-4.25,4-10.75,4.7-10.75,4.06-.1-1.39-1.29-1.81-1.72-2.83-1.33-3.4-2.08-6.95-3.82-10.16a38.48,38.48,0,0,1-2.91-5.84,32.76,32.76,0,0,0-3.42-6.87c-3-4.68-5.91-9.48-9.75-13.61a92.12,92.12,0,0,0-10.48-9.84,61.35,61.35,0,0,0-7.76-4.93c-2-1.17-5.87-3-8.11-3.29-4.49-.51-8.27-2-12.8-1.48-8.43.86-11.84,6.36-12.93,10.1,0,0-1.13.25-1.07-.66.18-4.17-2.22-12.29-2.81-16.43-1.37-9-4.17-13-3.73-21.07.08-2.07.2-15.92-.39-19.37V215c-.18-2.34-1.76-12.21-1.82-13.09.55-2.22-2-29.71-2.07-31.46-.1-4.21-1.36-26-2-30a104.88,104.88,0,0,1-1.19-11.12,4.91,4.91,0,0,0,0-.78h-.06l-3.88-33.09c-.7-4.76-.18-6.36-1.27-13.61s-3.37-11.28-5-16.15-5.6-5.11-7.26-4.8c-2.14.31-3.47,4.37-3.47,4.37L238,72.54s-.37,4.14-.37,4.64l-.13,1.56c-.57,2.26-2.13,5.77-2.56,11.94a27.55,27.55,0,0,0,1.66,10.88c.23,4.21.9,20.76,1.15,22.85a7.48,7.48,0,0,0,.08.88,11.1,11.1,0,0,1-2.61.22c-4.51-.8-7.63-2.26-12.31-2.21s-8.68-2.58-13.13-.63c-.8.43-5.64.16-7.29-.1-4.31-.68-5.93,1.39-9,1.68-3.53.29-5.83.08-9.36.33a41.77,41.77,0,0,0-6.9,1.52c-2.89.78-5.31-1-7.86-2-2.95-1.21-7.53-1.73-10.44-3-3.16-1.37-7.1-.31-10.42-1.33-8.72-2.69-17.24-5.77-25.77-8.86-12.6-4.57-10.61,4.8-10.77,6.32a5.47,5.47,0,0,0,1.29,3.74,3.33,3.33,0,0,1,.72,1.52,118.77,118.77,0,0,0,4.62,19.82c1.05,3.16,2.52,5.37,4,8.54.62,1.17,1.56,6.67.9,7.34-1,1.05-3.78,7.37-4.93,8.78-3.16,3.67-12.31,6.24-9.83,11.79,1.66,3.35,21.83,15.33,24.25,19,6.91,10.65,20,12.87,23.88,18.22,1,7.74-.9,24.83-1.36,26.43s-1.76,22.16-2.15,24.25c-1,4.56-5.44,28.52-5.4,29.08.15,1.31-2,7.51-2,7.51a2.44,2.44,0,0,0-.14.6s-2,18.28-3.41,24.29a42.24,42.24,0,0,0-1.52,11.16c-.2,5.23,1.42,7.36,2.71,7.37,3,0,7.2-9.36,7.2-9.36,1.6-4.06,2-3.36,3.12-6.16,2-4.86,3-6.73,3-6.73,1.15-3.38.47-6.6,1.19-8.23a76.25,76.25,0,0,1,4.92-10c-1.7,14.41-3.59,29.67-3.39,33.92.61,11.16,6.67,38.53,6.87,40.26a80.39,80.39,0,0,0,.8,8.31c.29,1.37,3,31.64,3.28,33.24.94,5.29,2.46,21.73,3.31,27,.7,4.53,2.83,6.42,4.17,10.87,1.37,4.64,5,13.51,5.95,18.26.29,1.21,1,2.42,2.24,2.44a3,3,0,0,0,3.26-2.59c.06-.51.25-1,.25-1.5.14-6.43,1.46-14.63,1.54-21s.35-25.09,1.91-31.43c4.68-19,4.82-41.16,10.12-46.43,4.14-4.17,6.16-7.45,11.86-6.51s16.25,7.53,19.76,13c2.5,4,13.93,31.83,18.74,37.59,5.17,6.18,5.42,19.72,7.26,22.8a3.2,3.2,0,0,0,2.69,1.48c1.72-.19,2.4-1.52,2.58-3.57.33-3.26,1.13-5.91,1.56-9.07.72-5.39.8-4.88.49-10.28-.06-1.21,1.89-20.07,1.77-29.48-.08-4.62.88-6.28.59-10.92a3.55,3.55,0,0,1,.14-.62c.1.16.27.27.33.47,1,2.85,1.85,6,2.32,7.65,1.05,3.74,2.32,5.38,5.21,9,3.75,4.64,7.9,9.65,9.62,10.55,3.34,1.84,11,3.44,14.79,4.18,4.6.92,10.47.61,15.08.61,6.9-.06,8.66-2,15.59-2.6,3.43-.27,3.59-.72,7-1.44,2.22-.51,14.87-7,15.22-7.26,4.35-3.12,36.15-25.52,36.48-65.86,0-6.53.9-20.85.43-21C392.64,316.22,392.64,315.75,392.64,315.52ZM120.78,185.4l0,0,.1,0Zm28.48,136.22c-1.93.41,1.33,3.16-1.33,3.25-1.29.1-1.42-1.28-1.46-2.57.86.58,1.13-.14,1.29-1.13.08-.58.27-1.17.84-1.17a2.72,2.72,0,0,1,1.6.55C150.64,320.94,150.12,321.41,149.26,321.62Zm114-97.77a.21.21,0,0,1-.14.06s0-.1-.06-.12A.33.33,0,0,1,263.26,223.85ZM261.6,367.32c.15.31.1.74-.37.71-1.35-.2-1-1.45-1.39-2.13,0-.57.2-1.27.63-1C261.26,365.35,261.26,366.51,261.6,367.32ZM261,338.1V338l.1,0Zm.2-18.74c-.24.06-.47,0-.33-.29s.33-.27.51-.31.16.12.39.31C261.5,319.18,261.4,319.34,261.23,319.36Zm.17,6.65a.84.84,0,0,0-.21.06.26.26,0,0,1,0-.18s0,0,.1,0A.3.3,0,0,1,261.4,326Zm-.51.82a4.93,4.93,0,0,0,.47.27c-.13.08-.27.27-.43.35s-.23-.2-.33-.31A1.15,1.15,0,0,0,260.89,326.83Zm-.33,1.21s.08,0,.14,0a1.38,1.38,0,0,1-.2.16s0-.08,0-.1S260.56,328.08,260.56,328.08Zm-.1,3.67s0-.08.1-.1a.22.22,0,0,1-.06.17h0Zm0,5.32c-.14.12-.31.29-.51.45s-.29-.23-.43-.31c.17-.2.31-.47.51-.58S260.56,336.58,260.5,337ZM259,353.16c.2.08.25.27.59.67-.25.15-.53.35-.62.31a1.85,1.85,0,0,1-.37-.66C258.57,353.4,258.94,353.08,259,353.16Zm-.31-17.47c0-.12.17-.25.27-.31s.24.12.37.25c-.13.17-.19.39-.27.45A.31.31,0,0,1,258.67,335.69ZM253.21,211c.29-.33,1.62-.62,1.85.23a4.55,4.55,0,0,1-1.27,4.33,3.11,3.11,0,0,1-.76-.2C254.63,213.81,252.14,212.33,253.21,211Zm-.08,8.55c.66-.61,1.31-1.29,2.07-.12-.33.16-.6.47-.84.48-.68,0-.57,1.43-1.38.72C252.45,220.25,252.74,219.85,253.13,219.51Zm-3.2-33c.39-.2,1-.16,1.13,1.35a2.33,2.33,0,0,1-.84.22c-.31,0-.7-.33-1.13-.51C249.43,187.16,249.56,186.63,249.93,186.46Zm1.13,29.46a1,1,0,0,1-.18.9c-.22.2-.57.16-.84.2a.71.71,0,0,1,.11-1C250.42,215.8,250.85,215.53,251.06,215.91ZM240.94,65.28a2.05,2.05,0,0,1,2.46.69c1.48,3,2.95,6.57,2.71,9,0,.27-.68.47-1.05.7-.66-.54-1.43-1.05-2.13-1.6a14.47,14.47,0,0,1-.61,1.66c-.39,0-.92-.12-1.38-.16.15-1.7,2.95-7.39-1.13-8.6C239.65,66.89,240.18,65.72,240.94,65.28Zm3.7,16.48c-.57-.57-1.89,1-1.89-1.23,0-1.09,0-2.81,1.07-2.61.62.16,1.21,1.79,1.6,2.89C246,82.14,245.29,82,244.64,81.77Zm-4.41,213.61c1.23-.11,1.23,1.47,1.8,2.58-.24.22-.62.84-.76.78a23.3,23.3,0,0,1-2.69-1C239.09,296.89,239.57,295.46,240.24,295.38Zm-1.09-1.28c.06,0,.06-.08.1-.12s.1.12.16.12-.06.1-.06.12A.33.33,0,0,1,239.14,294.1ZM231,141.24a25.86,25.86,0,0,1,.8-6.86c.39-1.62,3.08-2.46,5.19-1a3.47,3.47,0,0,1,1,2.44c-2.36.88-3,1.93-1.78,2.71a4.08,4.08,0,0,1,2.22,4.29,14,14,0,0,1,0,3.59c-.39,1.41-1.07,2-3.88.58C231.36,145.4,231,144.44,231,141.24Zm.53,8v0l-.06,0Zm-59.38-12.76c.39-2.85,4.23-4.25,5.89-3.51a2.33,2.33,0,0,1,.9,2.3c-3.45,2.53-1.09,2.61.37,4.43s1.09,5.4.9,6.26-4.08,3-5.91,3.79c-2.28,1.05-2.38-3.4-2.52-5.82A64.14,64.14,0,0,1,172.14,136.49Zm-9.33,23.7a.24.24,0,0,0,.1,0s0,.12-.06.12,0,0-.1,0S162.76,160.24,162.81,160.18Zm-22.32-32c.43.8,1.43,1.89,1.19,2.47-.53,1.09-1.81.31-3,.31,0-.31-.39-.88-.27-1A20.4,20.4,0,0,1,140.5,128.19Zm-9.61-10.42c.23,0,.33.53.56.92a17,17,0,0,1-3.18.63,6.58,6.58,0,0,1-.53-1.87C128.8,117.56,129.85,117.58,130.88,117.78Zm.17,3.8c.29,0,.53.63.8.94-1.89-.24-3.82-.47-5.91-.82a12.22,12.22,0,0,1-.7-1.21C127.18,120.82,129.13,121.13,131.06,121.58Zm0,7.81a2.69,2.69,0,0,1-.8.08c-.2-1.09-.37-2.24-.51-3.36a6.19,6.19,0,0,1,1.13-.41C131,127.08,131,128.21,131.06,129.38Zm-9.95,5.13a11.51,11.51,0,0,1-1-1.72c.33,0,.82-.17,1,0a18.82,18.82,0,0,1,1.62,2.19C121.74,134.73,121.3,134.71,121.11,134.52Zm2.32,7.16c1.05-1.45,0-3,.1-4.49,0-.12,1.15-.25,1.15-.2.37,1.41,2.79,1.15,2.63,2.75C126,140.64,125.19,142.24,123.43,141.67Zm7.22,42.49c-.2,1.21-1.29,1.64-2.09,2.24-.2.14-.53-.14-.39-.33a3.92,3.92,0,0,1,2.38-2.11c.18-.39.18-1,.86-1.07.08,0,.31.22.27.29C131.59,183.77,131.12,183.93,130.65,184.16Zm.61-32.83a9,9,0,0,1-1.33-3.65c0-.39,1-1.05,1.85-.25,1,1.07,2.46,2.07,2,4C133.81,151.62,131.59,151.76,131.25,151.33Zm-2.65-14a2.63,2.63,0,0,1-.23-.78c1.56-.67,3.08-1.74,4.88-.71.25.14.43.51.82,1C132,137,130.32,137.22,128.6,137.3Zm3.57-11.76c-.12-.73-.31-1.21-.2-1.29a13.31,13.31,0,0,1,1.89-1.27c.13.39.53,1,.37,1.09A25.26,25.26,0,0,1,132.17,125.54Zm4.62,67.16s-.14,0-.14,0v-.2a1.9,1.9,0,0,1,.24,0A.18.18,0,0,1,136.79,192.7Zm.66-9.4c.06,0,.16-.08.2-.11s0,.11,0,.15-.08,0-.14,0S137.46,183.32,137.46,183.3Zm.24,8.9,0,0a.21.21,0,0,1,0-.16s.12,0,.12,0S137.69,192.16,137.69,192.2Zm0-9.91c0-.09-.24-.25-.18-.35a.63.63,0,0,1,.29-.31c0-.06.21,0,.41.16A3.73,3.73,0,0,1,137.69,182.28Zm.53-50c1,.66,2.71,1.07,3,2,.43,1.13-1.62,1.13-2.11,1.13C137.42,135.26,139.21,133.29,138.22,132.31Zm2.4,6.55c-.21-.12-.41-.66-.59-1,1.74-.25,3.51-.62,5.19-.84.16,0,.29.53.49.76C144,138.9,142.39,139.51,140.62,138.86Zm8,12.49a4.89,4.89,0,0,1-4.84.66,4.72,4.72,0,0,1-.14-.9c2.19.9,2.65-2.3,4.55-1.77C148.59,149.46,149.4,150.69,148.59,151.35Zm8.92,155.55c-.29-.2-.29-1.13-.29-1.72,0-.74.33-.55.62-.31s1.23-.14.76,1C158.35,306.33,158,307.21,157.51,306.89Zm4.78-31.21c.1-1.23-1.38-2.3-.62-3.4a8.82,8.82,0,0,0,1.05-3.31s0,0,0,0v-.1c-.45-.18-1-.1-1-.84,0-.12.25-.43.39-.43.66.18.49.78.63,1.27,0,0,0,0,0,0V269a4.91,4.91,0,0,1,.76,6.38C163.09,275.45,162.72,275.59,162.29,275.68Zm1.6,10.46a.94.94,0,0,1,1.38-.16c0,.39-.08.78-.13,1.21a1.64,1.64,0,0,0-.59-.16A.68.68,0,0,1,163.89,286.14Zm1.05-10.59c.06-.41.37-.37.76-.25v1.05l-.14,0C165.27,276.21,164.9,275.82,164.94,275.55ZM166,358.12c-.2.06-1.48-1.83-1.29-2.38a8.6,8.6,0,0,1,2.65-3.12c.27-.23,1.39.37,1.13,1.56C168.06,355.62,167.93,357.51,166,358.12ZM165.74,218c.06-.22.25-.37.62-.86,0,.27.18.49.1.58a1.31,1.31,0,0,1-.33.51C165.94,218.37,165.64,218.3,165.74,218Zm4.41,161.59a1.46,1.46,0,0,1,.29,0,.34.34,0,0,0,0,.14h-.27C170.15,379.69,170.15,379.59,170.15,379.57Zm.23,13.74a.87.87,0,0,1,0-.29c0-.06,0-.06.1-.06a.76.76,0,0,1,0,.29C170.54,393.25,170.44,393.27,170.38,393.31Zm-1-49.66c1.93.23,2.79-1.48,4.21-2.22,0-.12.76.9.76,1-1.13,1.05.37,3.1-1.19,3.82C171.67,345.44,169.84,345.48,169.41,343.65Zm4.25,27.93a5.1,5.1,0,0,1-3.12-4.12c.2-.16.47-.33.76-.56.23,2.46,3.45,1.3,4,3.24C175.36,370.56,174.72,371.93,173.66,371.58ZM175.79,336c.19.33.62.65.53.92a22.47,22.47,0,0,1-1.19,2.66c-.23-1.13-.41-1.52-.33-1.78A18,18,0,0,1,175.79,336ZM175,312.4a.89.89,0,0,1,.24-.24c.06.12.14.2.14.25s-.08.15-.2.15S175,312.44,175,312.4Zm4.35,38.43c-1.21-1.82-2.26-3.24-3.22-4.76-.08,0,.53-.6.57-.6,1.44,1.07,3.14,1.91,3.14,4A3.88,3.88,0,0,1,179.34,350.82Zm1.15-47.27a2.26,2.26,0,0,1,.66-.27c.24-.1.37.16.24.33a.72.72,0,0,1-.53.31C180.76,303.95,180.66,303.73,180.49,303.56Zm.37-77.89a.26.26,0,0,1-.2-.11c.06,0,.06-.1.1-.1s.1.06.15.1S180.86,225.65,180.86,225.67Zm.13,67.42c.06,0,.12.08.12.1a.54.54,0,0,1-.12.27c-.08-.06-.13-.13-.13-.17S181,293.12,181,293.08Zm.12,67.57v-.12l.08,0Zm-.2-2.77c0-.37.37-.74.57-1.11,1.17,1.44,2.32,2.89,3.51,4.33a6.05,6.05,0,0,1-.53.84C182.61,361,181.25,359.8,180.92,357.89Zm2.83,42.81c-.14-.14-.47-.33-.41-.37.23-.49.57-1,.84-1.43l.66.54C184.88,400.33,184,400.25,183.75,400.7Zm1.42-12a.36.36,0,0,1,0-.2h.14a.15.15,0,0,1,.06.12C185.27,388.7,185.17,388.7,185.17,388.74Zm0-12.29c-.47,0-.66-.16-.61-.48a.78.78,0,0,1,.31-.61c.39-.14.49.2.49.45A1.37,1.37,0,0,1,185.17,376.45Zm.25-20.44c-.86,1-1.86-.9-2-1.28-.92-1.68,1.89-1.05,2.22-2.46C185.6,353.51,186.09,355.27,185.42,356Zm-.86-11.78a7.57,7.57,0,0,1-.49-.7c.92-.78,1.85-1.56,2.81-2.22,0-.08.47.43.94.86C186.63,342.92,185.6,343.61,184.56,344.23Zm1.84-43.64s.1-.14.1-.19a.54.54,0,0,1,.2.19c0,.14-.1.22-.2.29C186.5,300.81,186.36,300.73,186.4,300.59Zm.35,118c-.12-.1-.16-.16-.16-.27a.28.28,0,0,1,.16-.24.45.45,0,0,1,0,.51Zm.7-14.28c-.82-.12-.76-.73-.86-1.13-.1-.63.24-.7.66-.63s1,0,1,.71A1.21,1.21,0,0,1,187.45,404.27ZM189,354.49c-1.33.16-1.29-1.41-1.91-2.52.25-.25.59-.86.76-.76a26.67,26.67,0,0,1,2.75,1C190,353,189.54,354.45,189,354.49Zm2.08-10.1a21.92,21.92,0,0,1-2.44-1.17c.62-.45,1-.88,1.11-.82a18.57,18.57,0,0,1,2.07,1C191.57,343.8,191.2,344.39,191.06,344.39Zm.66-4.21c.08.31-.29.8-.47,1.21-.76-1.83-1.52-3.74-2.34-5.79.25-.45.47-.86.7-1.27C190.34,336.25,191.06,338.2,191.72,340.17Zm-1.46-39.36a.12.12,0,0,0,.08,0l0,.12-.08.06S190.26,300.89,190.26,300.81Zm2.21,93.92c-.18-.82-.33-1-.27-1.19s.27-.23.47-.35c0,.16.2.35.2.54S192.66,394.11,192.47,394.73Zm.82-2c-.1-.18-.35-.31-.35-.45a1.41,1.41,0,0,1,.25-.49c.66,0,.74.2.66.37S193.48,392.57,193.28,392.76Zm1.56-32.18h-.1v-.18c.1.06.1.06.14.06A.14.14,0,0,1,194.85,360.58ZM194.46,339a28,28,0,0,1-2.17-2.57c-.1-.12.9-1,1.46-1.45.43,1.05.94,2,1.33,3C195.18,338.22,194.75,338.61,194.46,339Zm10.84-2.73c-.17-.08-.27-.33-.37-.51.14-.07.29-.31.49-.31s.27.27.37.31C205.73,336.25,205.59,336.43,205.3,336.31Zm9.07,8.66s0-.11.1-.11a3,3,0,0,0-.63-.27.47.47,0,0,0,.14-.2c.39-.08.43.2.49.47C214.47,344.88,214.41,344.93,214.37,345Zm10.81-7.82c-.2-.06-.29-.29-.37-.48.13-.08.31-.31.39-.27s.31.23.59.5C225.51,337,225.32,337.19,225.18,337.15Zm1.07-10.51v-.12h.1Zm6.07-24.27c-.41,16.23-9.38,18.76-15.2,18.53h0c-.55.35-5.17.78-6.46.92-2-.06-4.64-2-5.87-3.12-.39-.39-.66-.68-.66-.78a8.75,8.75,0,0,0-.82-3.65,5.07,5.07,0,0,0-.8-1.52c-.57-.9-2.42-4.21-3.88-7.29a22.27,22.27,0,0,1-2-5.13c0-.24-.84-2.71-1.93-5.88-2.19-6.26-5.4-15.45-5.58-16.38-.88-3.32-3-15.92-3.67-19.25-.47-2.48-1.83-8.1-1.42-13.48,0-.82.2-2.11.24-3.59.19-3.38.39-7.81.49-10.26,0-1,0-1.72,0-1.83-.24-.86.19-2.93.74-5.23a45.39,45.39,0,0,1,3.32-8.62,2.22,2.22,0,0,0,.49-1.05c.39-1.38.23-3.51-.72-3.55-3.26-.35-6.61-.57-9.66-1.72-2.22-.82-4.58-1.21-6.83-2.18a39.76,39.76,0,0,1-10.55-6c-.86-.57-1.82-1.21-2.95-2a11,11,0,0,1-4.14-5.4c-.2-.51-.37-1.05-.57-1.62a36.12,36.12,0,0,1-.74-3.69c-.76-5.05,0-11.55,7.06-19.47a95.87,95.87,0,0,1,12.35-10.55,25.33,25.33,0,0,1,3.51-2.11c1.29-.6,7.49-5.19,9.77-6.9l.86-.68,2-1.68c10.71-9.05,7-2.47,12.66-6.67a18.13,18.13,0,0,0,2.19-2.83c.84-1.27,1.73-2.44,2.59-2.62a1.9,1.9,0,0,1,.82,0h0a2.75,2.75,0,0,1,1,.76c1,1,1.62,2.77,2.42,3.79.18.23.37.39.51.54,4.23,2.89,4.51,1.64,6.92,2.22a12.3,12.3,0,0,1,3.22,1.37c.55.19,7.65,6.55,8.15,6.83a1.8,1.8,0,0,0,.25.12,23.12,23.12,0,0,0,4.62,2.89c1.15.43,3.65,2.49,4.7,2.85-.7,26.24-3.69,48.69-5.78,59.42a25.53,25.53,0,0,0-.94,5,4.17,4.17,0,0,0-.19,1.17,2.18,2.18,0,0,0-.06,1.05,54.6,54.6,0,0,0,.08,7.49,25.22,25.22,0,0,1,.29,2.73c1,5.33,2.15,12.79,1.85,17.11-.19,2.91-1,28.15-.47,34.08S232.42,299.77,232.32,302.37Zm5.6-6.36a2.47,2.47,0,0,1-.68.25s-.18-.18-.12-.24.12-.27.24-.27S237.62,295.87,237.92,296Zm-2.85,18.76a31.87,31.87,0,0,1-1.23-3c-.1-.16.27-.54.57-1a17,17,0,0,1,2.12,2.62C236.67,313.51,235.59,314.31,235.07,314.77Zm4.08.82c-.62-2-1.33-3.92-1.95-5.89-.14-.37.29-.84.49-1.22.76,1.89,1.46,3.72,2.22,5.83A10,10,0,0,1,239.14,315.59Zm.06-8.11a15.85,15.85,0,0,1-2.09-1.09c.25-.35.7-.94.8-.9.76.27,1.36.71,2.42,1.21C239.71,307.13,239.4,307.55,239.2,307.48Zm2.83,1.13c0,.08-.47-.45-.9-.86,1.19-.74,2.24-1.42,3.26-2,0,0,.49.67.49.69C243.92,307.21,243,307.95,242,308.61Zm1.48-10.9c0-1.27-.45-3.06.23-3.76.84-1,1.85.94,2.07,1.33C246.58,297,243.89,296.26,243.52,297.71Zm4.15-4.46c-1.09-1.45-2.26-2.89-3.35-4.37-.1-.12.27-.53.47-.82,1.85,1,3.22,2.19,3.51,4.14C248.33,292.5,247.86,292.85,247.67,293.24Zm2-91.27c.27-.14.27.22.27.41a.72.72,0,0,1-.57.7c-.24,0-.47-.12-.33-.39A1.22,1.22,0,0,1,249.72,202Zm-.49,98.55c0-.33.2-.6.53-1.26,1.17,1.79,2.24,3.27,3.14,4.76a2.76,2.76,0,0,1-.53.62C250.89,303.54,249.19,302.66,249.23,300.51Zm3.81,13.6c-.2-.35-.59-.72-.49-1a27.79,27.79,0,0,1,1.19-2.58c.24,1.11.43,1.48.33,1.8A16.06,16.06,0,0,1,253,314.11Zm2.69-35.5a5.15,5.15,0,0,1,3.08,4.1c-.23.16-.47.39-.76.58-.2-2.47-3.41-1.38-3.88-3.27C254,279.58,254.73,278.18,255.72,278.61Zm-1.17,29.14c1.17-1-.31-3.08,1.27-3.78,1.46.76,3.36.74,3.75,2.61-1.95-.29-2.85,1.45-4.27,2.15A4,4,0,0,1,254.56,307.75Zm2.13,25.63v-.12l.08,0Zm0-6.83a.32.32,0,0,1-.06-.12s.06-.12.1-.12a1.24,1.24,0,0,0,.23.16A.49.49,0,0,0,256.68,326.56Zm4.88,62.07c-.37,0-.57-.35-.66-.66a30,30,0,0,0-2.36-5.42c-.2-.35-.57-.74-.12-1.05s.82.12,1,.51c.84,2,2,3.86,2.22,5.34C261.89,388.26,262,388.61,261.56,388.63Zm.61,1.37c-.08-.12-.23-.22-.18-.24a1.15,1.15,0,0,1,.24-.33c.08.08.23.14.17.18A.77.77,0,0,1,262.16,390Zm0-56.94c0-.06-.18-.14-.08-.18s.08-.15.18-.23l.19.23A2.35,2.35,0,0,0,262.16,333.05Zm.06-9.05s.08,0,.13,0a.28.28,0,0,0,0,.14s0,0-.1.08S262.22,324.06,262.22,324.06Zm.27-7a.5.5,0,0,0-.14-.08c0-.08,0-.12,0-.16l.1,0C262.55,316.84,262.49,316.94,262.49,317Zm1.11,12.25-.29-.31a1.85,1.85,0,0,0,.37-.27c.1,0,.29.07.53.19C264,329,263.78,329.13,263.61,329.25Zm.37-1.48.14-.07v.11Zm-2.22-30.16c-.35.23-1.42-.35-1.15-1.58.49-1.45.62-3.36,2.61-3.86.19-.08,1.46,1.81,1.23,2.32A8.11,8.11,0,0,1,261.75,297.61Zm4.35,109.9c-.08.33.1.94-.47.86s-.37-.51-.29-.88,0-.84,0-1.19c.76-2.73-1-5.5.31-8.19.08-.2-.06-.63.35-.63.06,0,.16.43.16.63.08,1.4.08,2.75.08,4.6C266.14,404,266.63,405.75,266.1,407.51ZM269,343c0,.1-.06.14-.06.18-.33.25-.47.94-1,.67-.13-.12-.1-.69-.06-1.07.1-1.5.19-3,.33-4.53,0-.33,0-.92.57-.8.39,0,.39.43.45.8A9.16,9.16,0,0,1,269,343Zm.43-28.57c-.11,0-.23-.12-.49-.16a1.42,1.42,0,0,0,.37-.43,1,1,0,0,1,.25.31C269.56,314.21,269.46,314.42,269.38,314.42Zm1.13,39.11-.06-.1h.16Zm8.19-58.77a.18.18,0,0,1-.06-.12c.06,0,.06-.06.12-.06A.24.24,0,0,1,278.7,294.76ZM281,330.34s-.15,0-.15,0v-.2a.45.45,0,0,1,.15,0Zm2.52-47.17-.1-.1h.13Zm1,99.13-.13,0,.13-.11Zm2.36-90.86a.69.69,0,0,0,0-.12c0-.07,0-.09.08-.09a.31.31,0,0,1,.13,0A.65.65,0,0,1,286.9,291.44Zm15.22-5.3c.06,0,.19.25.19.25s-.25.24-.39.39a2.64,2.64,0,0,0-.27-.47C301.86,286.26,302,286.14,302.11,286.14Zm-.8,77.17a.46.46,0,0,1,.18.1c0,.1-.14.14-.18.25,0,0-.16-.12-.1-.12A.66.66,0,0,0,301.31,363.31Zm-1.25,26.22c-.31,0-.41-.35-.31-.6.06-.45,0-1,.51-1.09s.39.37.29.8S300.88,389.52,300.07,389.52ZM300,365.88c.14.12.21.16.47.37-.25.16-.33.33-.53.37s-.24,0-.37-.12C299.69,366.31,299.83,366.08,300,365.88Zm-4.41,9.87a1.07,1.07,0,0,1,.37.5,2.59,2.59,0,0,0-.31.41,1,1,0,0,1-.19-.47A1.11,1.11,0,0,1,295.58,375.75Zm-6.34-3.28a3.2,3.2,0,0,1,.08.59c0,.08-.14.23-.27.41a6.41,6.41,0,0,1-.15-.72C288.93,372.63,289.08,372.57,289.24,372.47Zm-.39,33.2c-.1,0-.1-.23-.2-.39.2,0,.43-.06.59,0a2.21,2.21,0,0,1,.41.47A2.57,2.57,0,0,1,288.85,405.67Zm2.89-14.14c-.14,0-.43-.33-.37-.41s.27-.51.47-.55.43.2.47.22C292.26,391.47,292.07,391.67,291.73,391.53Zm.37-25.92c0-.31,0-.74.2-1,.43-.47-.74-1.29.35-1.48.61-.11.76.35.76.86C293.41,364.91,293.49,365.84,292.1,365.61Zm1.33-77.29s-.08-.11,0-.13,0-.1.12-.22a.22.22,0,0,0,.1.14C293.53,288.17,293.53,288.25,293.43,288.32ZM296,403.8c-.47-.16-1.13,0-1.17-.64-.06-.22.45-.45.76-.7a5.72,5.72,0,0,1,.9,1.15C296.71,404.13,296.14,403.92,296,403.8Zm.49-8c-.29,0-.49-.16-.25-.41.37-.45.33-1.25,1.13-1.31.25,0,.29.2.2.5C297.33,394.95,297.33,395.75,296.53,395.77Zm1.7-44.48c.14-.08.24-.24.31-.25s.25.08.51.2c-.25.14-.31.33-.45.33S298.37,351.37,298.23,351.29Zm3.18,54.29c-1-.33-2.42-.21-2.71-1.5-.15-.55,1.23-1.56,1.33-1.39.53,1,1.89,1.27,2.22,2.24C302.25,405.83,301.65,405.67,301.41,405.58Zm.51-31.85a.62.62,0,0,1,.25-.25.39.39,0,0,1,.18.25c.06.08,0,.2-.1.27A1.64,1.64,0,0,0,301.92,373.72Zm.43,11.53-.1-.16.29,0c0-.06,0,0,.08.08A1.64,1.64,0,0,1,302.35,385.25Zm40.52-49.34c0,.06,0,.16.06.16a.29.29,0,0,0-.18,0V336A.21.21,0,0,1,342.86,335.92Zm-.7,25.63s0,0,.08.08-.06.16-.14.27c0,0-.11-.12-.11-.12A1.22,1.22,0,0,1,342.16,361.55Zm-1.15-24c.39,0,.39.35.43.62s-.1.55-.57.49c-.14-.18-.39-.39-.39-.61S340.68,337.52,341,337.52Zm-2.26-29.26a3.45,3.45,0,0,1,.33.47,4.76,4.76,0,0,0-.45.23c0-.14-.21-.27-.21-.43S338.63,308.36,338.75,308.26Zm0,6.75c.23-.12.53.25.43.58s-.23.69-.8.86c-.06-.16-.2-.35-.16-.47A4.42,4.42,0,0,1,338.78,315Zm-2.26-3.08c.08-.08.27-.08.37-.14a.55.55,0,0,1-.24.27,3.05,3.05,0,0,1-.25.6s-.23-.15-.18-.23S336.41,312.08,336.52,311.93Zm-6-1.6c.53.9,1.66,2.11,1.37,2.77-.57,1.23-2,.41-3.4.35-.06-.33-.43-1-.35-1.13C328.88,311.57,329.73,311,330.49,310.33Zm.9,6.81c.47,1.31-1.8,1.25-2.34,1.25-2-.14.06-2.34-1.07-3.42C329.11,315.67,331.06,316.14,331.39,317.14ZM329,377s-.1.08-.1,0,0-.08,0-.12a.24.24,0,0,0,.1,0S328.94,377,329,377Zm-.37-10c-.06,0-.06.06-.14.1s-.11-.2-.15-.24l.1-.08A1.09,1.09,0,0,1,328.6,367Zm-.57-3a.84.84,0,0,0,.24.15c-.06.08-.16.14-.2.22,0-.08-.1-.14-.13-.22S328,363.93,328,363.93Zm-.25,1.21v.12h0Zm-1.54-6.4s.08.08.08.12-.08.08-.14.19a.31.31,0,0,1-.1-.11ZM323,304.49c.2.41.57,1.09.49,1.19-.66.59-1.42.94-2.42,1.64-.06-.78-.29-1.37-.14-1.45A15.75,15.75,0,0,1,323,304.49Zm-3.59-8c.08,0,.27.1.47.16-.19.39-.47.75-.57,1-.47.1-.76-.06-.6-.29A2.08,2.08,0,0,1,319.45,296.48Zm.27,2.11c.19,0,.33.63.62,1.05a21.72,21.72,0,0,1-3.59.71,10.42,10.42,0,0,1-.59-2.11C317.37,298.35,318.56,298.39,319.73,298.58Zm.19,4.29c.33.06.57.68.88,1.07-2.11-.25-4.23-.56-6.65-.92a8.61,8.61,0,0,1-.76-1.39C315.53,302,317.76,302.37,319.92,302.88Zm0,8.8a4.58,4.58,0,0,1-.94.1c-.19-1.26-.39-2.57-.59-3.82a9.1,9.1,0,0,1,1.29-.41C319.79,309.08,319.88,310.37,319.92,311.67ZM306.42,379c-.53-.16-.66-.43-.66-.78s.14-.8.53-.73c.18,0,.51.47.51.73S306.56,378.76,306.42,379Zm1.83-4.53c-.13-.39-.21-.58-.17-.74s.29-.29.37-.43c.12.18.29.33.25.51S308.51,374.14,308.26,374.46Zm.49-57a12.24,12.24,0,0,1-1.13-1.95c.37,0,.9-.16,1.13,0a22.92,22.92,0,0,1,1.8,2.45C309.41,317.64,308.94,317.64,308.74,317.43Zm2.32-26.55s0-.1.16-.1.13.08.27.1c-.1.06-.14.18-.2.14A.36.36,0,0,1,311.07,290.88Zm1.36,71.37c.06,0,.12.16.16.23s0,.08-.1.08a.71.71,0,0,1-.29-.1C312.29,362.37,312.39,362.25,312.43,362.25Zm0-16.89s.16-.2.2-.16.23.16.47.31c-.29.08-.37.22-.51.2A.54.54,0,0,1,312.39,345.36Zm.92,20.52c-.15.37.08,1.17-.54,1s-.27-.94-.33-1.46.12-.64.53-.68C313.58,365,313.48,365.49,313.31,365.88Zm0-17.28a2.09,2.09,0,0,0-.15-.29s.11-.08.15-.1.1.2.14.27S313.39,348.52,313.35,348.6Zm0-4.74c.14,0,.22-.14.27-.14s.1.19.14.29a1.16,1.16,0,0,1-.27.1C313.39,344.07,313.35,343.93,313.31,343.86Zm1,3.19a.67.67,0,0,1-.6-.84c0-.24.27-.47.37-.66.57.16.72.39.72.86S314.66,347.12,314.28,347.06Zm.43-17.45a1,1,0,0,1-.14-.27,1.65,1.65,0,0,1,.27-.35.59.59,0,0,1,.2.27A2.77,2.77,0,0,1,314.71,329.6Zm-3.36-4.08c1.19-1.66,0-3.42.14-5.09a4.13,4.13,0,0,1,1.27-.24c.39,1.62,3.14,1.33,2.95,3.12C314.21,324.33,313.31,326.09,311.36,325.52Zm4.82,1.58a.11.11,0,0,1-.08,0v-.16s.08.06.08.06Zm1-6.51c-.1,0-.31-.86-.29-.9,1.72-.78,3.47-1.91,5.52-.8a6.12,6.12,0,0,1,.9,1.19C321,320.28,319.08,320.47,317.17,320.59Zm3,15.76a9.44,9.44,0,0,1-1.56-4.14c0-.39,1.09-1.15,2.15-.25,1.07,1.19,2.79,2.32,2.3,4.47C323,336.64,320.55,336.83,320.16,336.35Zm1.58,27.74c-.06.31-.1.74-.55.67-.14,0-.27-.45-.22-.67s.2-.58.41-.58S321.74,363.8,321.74,364.08Zm-2.91,36.44c-.37.12-.47-.25-.37-.49a3.14,3.14,0,0,1,.66-.92c.16.16.27.33.8.86A3.06,3.06,0,0,1,318.83,400.52Zm1.29-9.44c-.59,0-.84-.43-.76-.63.57-1,.94-2.3,2.09-2.89.29-.16.51.23.51.51C321.78,389.4,320.49,390,320.12,391.09Zm4.41-7.61c0-.08-.1-.14-.1-.23a.69.69,0,0,1,.14-.27c0,.12.1.22.1.29S324.56,383.4,324.52,383.48Zm-.76-19.82c-.1.06-.29.06-.43.14.43-.94-.94-1.54-.47-2.36a5.72,5.72,0,0,0,.56-2.07h0v-.08c-.29-.12-.68,0-.72-.41,0-.1.2-.31.29-.31.43.06.27.45.43.72l0,0v0A2.7,2.7,0,0,1,323.77,363.66Zm1.09,5.46c-.06,0-.2-.18-.2-.25a2,2,0,0,0,.27-.41c.16.25.29.39.25.47S324.93,369.08,324.86,369.12Zm1-1.48c-.1,0-.33-.18-.27-.24.06-.35.08-.78.66-1a2.12,2.12,0,0,1,.27.41C326.65,367.36,326.28,367.56,325.89,367.64Zm.54-69c.18-.24.31-.49.55-.58s.33.25.66.5c-.43.16-.7.35-.9.39S326.44,298.7,326.44,298.66Zm3,109.63c-.51-.12-1.23-.27-1.89-.47.35-.5,1-1.05,1.39-.82.56.39,1.7-.18,1.79.84C330.77,408.43,330,408.13,329.44,408.29Zm1.05-64.76.14,0-.08.1Zm.37,42c-.1-.06-.14-.23-.18-.41,0,0,.14-.14.24-.1s.19.12.41.27C331.12,385.39,330.92,385.54,330.87,385.48Zm1-24.79-.53-.24a1,1,0,0,1,.33-.5,1.53,1.53,0,0,1,.39.35C332.05,360.38,331.92,360.54,331.82,360.69Zm-.76-10.75c0-.11.16-.45.33-.45.39-.06.39.23.39.58,0,.18.08.45-.39.51A1.21,1.21,0,0,1,331.06,349.94Zm-.37-27.64c-.33-.12-.43-.72-.68-1.09,2-.27,3.9-.66,5.89-.94.13,0,.27.58.51.86C334.49,322.38,332.68,323.06,330.69,322.3Zm3.49,14.82c0-.27-.08-.62-.14-1,2.48,1.05,3-2.57,5.13-2,.45.12,1.37,1.48.51,2.26A5.68,5.68,0,0,1,334.18,337.13Zm3.94,4.68s-.06,0-.06.07-.08,0-.13-.05a.26.26,0,0,1,.1-.12A.36.36,0,0,1,338.12,341.81Zm-.47,43.89a1.21,1.21,0,0,1-.19-.22.4.4,0,0,1,.23-.27s.18.09.18.13A1.42,1.42,0,0,1,337.65,385.7Zm-.15-19.12a1.57,1.57,0,0,1,1.29-1.39c.47-.1.59.33.47.65-.23.66-.57,1.28-.84,2A1.47,1.47,0,0,1,337.5,366.58Zm2.32,16.15c.39-.12.62.14.66.56a1.81,1.81,0,0,1-1,1.39c-.37.16-.47-.22-.47-.47C339,383.59,339.12,382.93,339.82,382.74Zm0,9.87c-.16-.16-.39-.31-.39-.5a1.64,1.64,0,0,1,1-1.45c.19-.1.49,0,.49.43C340.54,391.53,340.15,392.06,339.78,392.6Zm1.7-2.24c-.14-.21-.37-.41-.37-.49a3.48,3.48,0,0,1,1.47-1.52,5.34,5.34,0,0,1,.43.39C342.49,389.25,342,389.76,341.48,390.36Zm1.05-16.83c-.1-.12-.35-.39-.29-.39a3.43,3.43,0,0,1,.86-.73s.39.29.39.37C343.43,373.25,343.06,373.41,342.53,373.53Zm1.29-13a27.65,27.65,0,0,1,1.83-2.11c.06,0,.33.2.53.33a6.16,6.16,0,0,1-2.12,2.07S343.82,360.58,343.82,360.58Zm1.33,13.5a1.43,1.43,0,0,1-.19.23,2.28,2.28,0,0,1-.29-.35.65.65,0,0,1,.25-.27A3.73,3.73,0,0,1,345.14,374.08Zm-.33,14.78c-.16,0-.29-.16-.35-.22a.44.44,0,0,1,.25-.37c.1,0,.24.15.61.37A1.31,1.31,0,0,1,344.81,388.86Zm1.09-16.37a4.56,4.56,0,0,1,.7-.66c.08.14.27.33.23.37-.18.27-.43.59-.82,1.13C345.92,372.87,345.85,372.59,345.9,372.49Zm1.33,13.4a1.35,1.35,0,0,1-.86,1.11c-.06,0-.29-.22-.29-.29,0-.62.47-.82,1-1-.29-1.15,1-1.07,1.33-1.75a2.71,2.71,0,0,1,.37.12A3,3,0,0,1,347.23,385.9Zm1.33-20.54c-.06.06-.49-.23-.43-.29.17-.55.64-.71,1.13-.84.08,0,.2.14.41.25A8.53,8.53,0,0,1,348.56,365.35Zm3.12-21.79c-1.05,0-.37-1.09-.76-1.56,0-.56-.06-1.28.57-1.28.82,0,1.29.9,1.42,1.46S352.3,343.53,351.68,343.57Zm2.85,20.6a1,1,0,0,0-.2-.23l.37-.22c0,.1.1.22,0,.29S354.61,364.12,354.53,364.16Zm1.46,26a.91.91,0,0,1-.49-.39c-.14-.47,1.85-2.85,2.46-2.89.06.08.29.16.29.37C358.41,387.71,356.32,390.25,356,390.19Zm-.12-28a.63.63,0,0,1,.35-.25c.1,0,.21.21.33.37-.2.1-.33.24-.49.24S355.85,362.25,355.87,362.21Zm2.61,12.64,0-.06.16,0Zm3.14-8.51a.25.25,0,0,1-.33-.31.67.67,0,0,1,.43-.39c.1-.06.23.12.41.25C362,366.11,361.82,366.31,361.63,366.35ZM369.88,388a.32.32,0,0,0-.06-.12l.1,0s0,0,.1.1C369.92,388,369.92,388,369.88,388Zm8.51-11.82c0-.1-.08-.16-.14-.27s.1-.08.14-.08a.9.9,0,0,1,.19.2C378.5,376,378.44,376.12,378.38,376.18Zm2.81-7.34v0s0,0,0,0Zm5-60.12c-.14,3.77-1.13,7.41-1.58,11.12-.51,4.49-.11,10-1,14.51a79.78,79.78,0,0,1-4.35,13.42c-.76,1.87-4.84,3.69-6.79,3.16-1.75-.51-3.74-4.14-3.12-5.92a1.05,1.05,0,0,1,.33-.43c.14.18,1.4-3,2.17-6.85,1.56-7.88-3.73-1.13-7.94-.92a15.45,15.45,0,0,0-3.7.45c-1,.41-1.76-.25-1.56-1.41.08-.35.08-.58-.24-.64-2.42-.56-2.73-2.59-2.61-4.39a7.45,7.45,0,0,1,5.07-6.87c5.87-2.36,10.28-6.49,15.62-9.77a36.88,36.88,0,0,0,8.49-7.08c.29-.31.51-1,1-.84s.08.88.11,1.3A3.13,3.13,0,0,1,386.17,308.73Zm-230.9-256a5.69,5.69,0,0,0,1.38.33c10.81,2.87,15.16,8.43,15.45,19.55a45.09,45.09,0,0,0,1,7.59c-.35,2.64,5.07,2.62,5.15-1.05a63.8,63.8,0,0,0,1.09-10c.1-6.83,3.61-11,9.75-13.32a60.73,60.73,0,0,0,6.69-2.73c.94-.52,2-1.89,2-2.87s-1.27-2.07-2.28-2.57c-2.56-1.37-5.31-2.19-7.86-3.47a14,14,0,0,1-8-13.27c0-1.72,0-3.49-.1-5.27-.29-2.93-1.46-4.44-3.45-4.44-2.42,0-3.37,1.75-3.74,3.7-.49,2.85-.76,5.74-1.05,8.57-.51,6.3-3.75,10.41-9.79,12.25-2,.56-4,.9-6,1.46-1.62.41-3.51,1-3.08,3C152.54,51.14,154.19,51.88,155.27,52.72Zm108,89.28c.72,7.37-.14,7,1,14.65.55,4,.29,11.51.6,15.5.45,4.9,1,20.48,1.09,21,0,.82.14,5.77.14,6.59.23,2.62,1,5.35.86,5.79-.76,2.85.27,6.34,1,6.14a54.31,54.31,0,0,1,3.84-4.06c3-3.31,11.43-10.31,12.89-11.78,3.61-3.94,13.56-17.28,15.45-20.07,1.33-2,6.59-6,6.44-9.5-.1-1.27-5.87-2.57-7.1-3.08a52.88,52.88,0,0,1-6.17-3.24c-2.28-1.32-3.69-3.67-5.3-5.77-1.87-2.46-1.76-5-1.09-7.82.86-3.44,1.75-5.37,2.42-8.86,1.7-8.76,5-16.17,9.29-24,1.77-3.29-1.07-8-6.54-5.26-5,2.61-7.22,5.4-12.33,7.35-1.83.71-6.61,3.51-8.47,4.33-1.29.57-2.28.76-3.51,1.25-1.17.86-2.32,1.68-3.32,2.34-1.7,1.24-1.19,2.38-1.38,4.46a14.31,14.31,0,0,0-.14,3.67c-.06.84-.33.68-.23,1.54C263.22,137.07,263.06,140.11,263.26,142ZM293,182.79l.08-.06v.1Zm1-16.13c1.42.6,2.18,1.87,2.56,3.69-.18.16-.43.35-.66.53-.18-2.21-2.89-1.19-3.26-2.91C292.59,167.54,293.22,166.25,294.06,166.66Zm-.39-55.95a2.93,2.93,0,0,1,.53,1c-1,.88.16,2.83-1.23,3.34-1.19-.8-2.73-.82-3-2.52C291.6,112.8,292.46,111.36,293.67,110.71Zm-2.93,4.06a7.25,7.25,0,0,1,1.36.74c-.17.51-.51.45-.66.31-.51-.22-1.27,0-1.46-.68C289.88,114.77,290.51,114.67,290.74,114.77Zm-6.15,46a.93.93,0,0,1,.57.7c0,.27-.25.54-.39.78a.84.84,0,0,1-.72-.74C284,161.22,284.15,160.75,284.59,160.79Zm-1.95-19.17c.9,0,1.36.19,1.33.84-.06.49-.43.54-.82.39s-1.13-.23-1.21-.94C281.88,141.83,282.59,141.67,282.64,141.62Zm-15.31-1.31c.47-.74.92-2,1.43-2.11s.23,1.31-.14,2.69A12.2,12.2,0,0,0,267.33,140.31ZM270,168.47c-.47-.16-.84-.35-1.29-.5.45-.78.86-2.07,1.38-2.15S270.32,167.11,270,168.47Zm-.17-18.8c0-.35-.06-.74.08-.94.43-.55-.8-1.31.29-1.56.61-.14.74.35.8.86C271.08,148.93,271.12,149.83,269.81,149.67Zm6.44,34.76c-.62.14-.76-.35-.82-.86,0-.88-.17-1.79,1.19-1.64-.06.29.06.72-.14,1C276.05,183.38,277.3,184.2,276.25,184.43Zm2.83-13c.53-.08.45.39.33.76s.39.88-.41.92c-.35,0-.43-.29-.39-.58S278.57,171.48,279.07,171.44Zm.29,11.28a8.2,8.2,0,0,1,.35,1.56c-.25.55-.64,1.07-.92,1.6-.16-.27-.49-.61-.37-.88A10.5,10.5,0,0,1,279.37,182.71Zm-2.52-4.43c-.31.41-.24,1.23-1.05,1.27-.31.06-.45-.14-.31-.41.43-.45.29-1.29,1.07-1.35C276.85,177.76,276.91,178,276.85,178.28ZM275,122.87c.7-.37,1.07.08,1.52.53-.06,0-.06.06-.15.06-.47.08-1.09.23-1.52-.22A.43.43,0,0,1,275,122.87Zm-.63,23.41c.39,0,.43.27.39.55,0,.5,0,1.09-.49,1.13s-.37-.39-.27-.74S273.57,146.3,274.39,146.28Zm-1.19,43.46c.19.54-.33.31-.53.25-.41-.16-1.07,0-1.17-.63,0-.17.41-.47.72-.74A6.17,6.17,0,0,1,273.2,189.74Zm-4-60.43c1,.27,2.42.12,2.73,1.38.2.53-1.13,1.6-1.21,1.45-.57-1-2-1.23-2.32-2.17C268.33,129.07,269,129.25,269.19,129.31Zm-2.56,1.17h0a.33.33,0,0,1,.23.12c.62.39,1.35.58,1.66,1.28,0,0-.18.18-.23.16-.76-.27-1.46-.62-1.66-1.56l0,.08Zm.8,3.55a.28.28,0,0,1,.23.47c-.33.39-.23,1.26-1,1.36-.29,0-.35-.19-.24-.5C266.67,134.92,266.63,134.1,267.43,134Zm-2.09-2.15h.1l-.1.16Z"/>
</svg>