<svg xmlns="http://www.w3.org/2000/svg" x="0px" y="0px" width="20" height="20" viewBox="0,0,256,256">
<g transform=""><g fill="#c76b6b" fill-rule="nonzero" stroke="none" stroke-width="none" stroke-linecap="butt" stroke-linejoin="none" stroke-miterlimit="10" stroke-dasharray="" stroke-dashoffset="0" font-family="none" font-weight="none" font-size="none" text-anchor="none" style="mix-blend-mode: normal"><path transform="scale(5.12,5.12)" d="M45,8c0.72127,-0.0102 1.39216,0.36875 1.75578,0.99175c0.36361,0.623 0.36361,1.39351 0,2.01651c-0.36361,0.623 -1.0345,1.00195 -1.75578,0.99175h-40c-0.72127,0.0102 -1.39216,-0.36875 -1.75578,-0.99175c-0.36361,-0.623 -0.36361,-1.39351 0,-2.01651c0.36361,-0.623 1.0345,-1.00195 1.75578,-0.99175zM45,23c0.72127,-0.0102 1.39216,0.36875 1.75578,0.99175c0.36361,0.623 0.36361,1.39351 0,2.01651c-0.36361,0.623 -1.0345,1.00195 -1.75578,0.99175h-40c-0.72127,0.0102 -1.39216,-0.36875 -1.75578,-0.99175c-0.36361,-0.623 -0.36361,-1.39351 0,-2.01651c0.36361,-0.623 1.0345,-1.00195 1.75578,-0.99175zM45,38c0.72127,-0.0102 1.39216,0.36875 1.75578,0.99175c0.36361,0.623 0.36361,1.39351 0,2.01651c-0.36361,0.623 -1.0345,1.00195 -1.75578,0.99175h-40c-0.72127,0.0102 -1.39216,-0.36875 -1.75578,-0.99175c-0.36361,-0.623 -0.36361,-1.39351 0,-2.01651c0.36361,-0.623 1.0345,-1.00195 1.75578,-0.99175z" id="strokeMainSVG" stroke="#c76b6b" stroke-width="3" stroke-linejoin="round"></path><g transform="scale(5.12,5.12)" stroke="none" stroke-width="1" stroke-linejoin="miter"><path d="M5,8c-0.72127,-0.0102 -1.39216,0.36875 -1.75578,0.99175c-0.36361,0.623 -0.36361,1.39351 0,2.01651c0.36361,0.623 1.0345,1.00195 1.75578,0.99175h40c0.72127,0.0102 1.39216,-0.36875 1.75578,-0.99175c0.36361,-0.623 0.36361,-1.39351 0,-2.01651c-0.36361,-0.623 -1.0345,-1.00195 -1.75578,-0.99175zM5,23c-0.72127,-0.0102 -1.39216,0.36875 -1.75578,0.99175c-0.36361,0.623 -0.36361,1.39351 0,2.01651c0.36361,0.623 1.0345,1.00195 1.75578,0.99175h40c0.72127,0.0102 1.39216,-0.36875 1.75578,-0.99175c0.36361,-0.623 0.36361,-1.39351 0,-2.01651c-0.36361,-0.623 -1.0345,-1.00195 -1.75578,-0.99175zM5,38c-0.72127,-0.0102 -1.39216,0.36875 -1.75578,0.99175c-0.36361,0.623 -0.36361,1.39351 0,2.01651c0.36361,0.623 1.0345,1.00195 1.75578,0.99175h40c0.72127,0.0102 1.39216,-0.36875 1.75578,-0.99175c0.36361,-0.623 0.36361,-1.39351 0,-2.01651c-0.36361,-0.623 -1.0345,-1.00195 -1.75578,-0.99175z"></path></g></g></g>
</svg>